# xmcd
#
# Track frame offsets:
# 150
# 22100
# 37226
# 55797
# 71522
# 92239
# 107850
# 121171
# 139580
# 156665
# 179091
# 196820
#
# Disc length: 2838 seconds
#
#
# Revision: 0
# Processed by: cddbd v1.5.2PL0 Copyright (c) Steve Scherf et al.
# Submitted via: FreeRIP 2.942 
#
DISCID=b20b140c
DTITLE=Canticos da Igreja Católica - Canticos da Igreja Católica
DYEAR=1900
DGENRE=Gospel
TTITLE0=Noites traiçõeiras
TTITLE1=Mover do espírito
TTITLE2=Oração do Servo
TTITLE3=Jesus Cristo Mudou Meu viver
TTITLE4=Sonho nazareno
TTITLE5=Familias
TTITLE6=Ave graciosa Maria
TTITLE7=A Treze de maio
TTITLE8=Viva a mãe de Deus e nossa
TTITLE9=Virgem negra
TTITLE10=faixa11
TTITLE11=faixa12
EXTD=
EXTT0=
EXTT1=
EXTT2=
EXTT3=
EXTT4=
EXTT5=
EXTT6=
EXTT7=
EXTT8=
EXTT9=
EXTT10=
EXTT11=
PLAYORDER=
